<svg width="512" height="512" viewBox="0 0 512 512" fill="none" xmlns="http://www.w3.org/2000/svg">
<g clip-path="url(#clip0_2_12)">
<rect y="479" width="184" height="33" fill="white"/>
<rect x="328" y="479" width="184" height="33" fill="white"/>
<path d="M256 0C397.385 0 512 116.961 512 261.238C512 380.005 434.332 480.26 328 512V478.833C416.953 448.194 481 362.349 481 261.238C481 134.432 380.264 31.6338 256 31.6338C131.736 31.6338 31 134.432 31 261.238C31.0002 361.97 94.5678 447.549 183 478.485V511.7C77.181 479.631 0.000198997 379.633 0 261.238C0 116.961 114.615 0 256 0Z" fill="white"/>
</g>
<defs>
<clipPath id="clip0_2_12">
<rect width="512" height="512" fill="white"/>
</clipPath>
</defs>
</svg>
