<svg xmlns="http://www.w3.org/2000/svg" viewBox="0 9.329999923706055 336.0400085449219 46.459999084472656" data-asc="0.9052734375"><g fill="#ffffff"><g fill="#ffffff" transform="translate(0, 0)"><path d="M0 45.26L0 9.47L4.74 9.47L4.74 45.26L0 45.26ZM12.55 22.14L11.43 15.45L11.43 9.47L16.43 9.47L16.43 15.45L15.26 22.14L12.55 22.14ZM22.07 45.26L22.07 19.34L26.00 19.34L26.00 22.97Q27.22 21.07 29.25 19.91Q31.27 18.75 33.86 18.75Q36.74 18.75 38.59 19.95Q40.43 21.14 41.19 23.29Q44.26 18.75 49.19 18.75Q53.05 18.75 55.13 20.89Q57.20 23.02 57.20 27.47L57.20 45.26L52.83 45.26L52.83 28.93Q52.83 26.29 52.40 25.13Q51.98 23.97 50.85 23.27Q49.73 22.56 48.22 22.56Q45.48 22.56 43.68 24.38Q41.87 26.20 41.87 30.20L41.87 45.26L37.48 45.26L37.48 28.42Q37.48 25.49 36.40 24.02Q35.33 22.56 32.89 22.56Q31.03 22.56 29.46 23.54Q27.88 24.51 27.17 26.39Q26.46 28.27 26.46 31.81L26.46 45.26L22.07 45.26ZM75.98 32.30Q75.98 25.10 79.98 21.63Q83.33 18.75 88.13 18.75Q93.48 18.75 96.88 22.25Q100.27 25.76 100.27 31.93Q100.27 36.94 98.77 39.81Q97.27 42.68 94.40 44.26Q91.53 45.85 88.13 45.85Q82.69 45.85 79.33 42.36Q75.98 38.87 75.98 32.30M80.49 32.30Q80.49 37.28 82.67 39.76Q84.84 42.24 88.13 42.24Q91.41 42.24 93.58 39.75Q95.75 37.26 95.75 32.15Q95.75 27.34 93.57 24.87Q91.38 22.39 88.13 22.39Q84.84 22.39 82.67 24.85Q80.49 27.32 80.49 32.30ZM105.42 45.26L105.42 19.34L109.35 19.34L109.35 22.97Q110.57 21.07 112.60 19.91Q114.62 18.75 117.21 18.75Q120.09 18.75 121.94 19.95Q123.78 21.14 124.54 23.29Q127.61 18.75 132.54 18.75Q136.40 18.75 138.48 20.89Q140.55 23.02 140.55 27.47L140.55 45.26L136.18 45.26L136.18 28.93Q136.18 26.29 135.75 25.13Q135.33 23.97 134.20 23.27Q133.08 22.56 131.57 22.56Q128.83 22.56 127.03 24.38Q125.22 26.20 125.22 30.20L125.22 45.26L120.83 45.26L120.83 28.42Q120.83 25.49 119.75 24.02Q118.68 22.56 116.24 22.56Q114.38 22.56 112.81 23.54Q111.23 24.51 110.52 26.39Q109.81 28.27 109.81 31.81L109.81 45.26L105.42 45.26ZM145.87 35.82L150.27 35.23Q151.03 38.96 152.84 40.61Q154.66 42.26 157.28 42.26Q160.38 42.26 162.51 40.11Q164.65 37.96 164.65 34.79Q164.65 31.76 162.67 29.80Q160.69 27.83 157.64 27.83Q156.40 27.83 154.54 28.32L155.03 24.46Q155.47 24.51 155.74 24.51Q158.54 24.51 160.79 23.05Q163.04 21.58 163.04 18.53Q163.04 16.11 161.40 14.53Q159.77 12.94 157.18 12.94Q154.61 12.94 152.91 14.55Q151.20 16.16 150.71 19.38L146.31 18.60Q147.12 14.18 149.98 11.76Q152.83 9.33 157.08 9.33Q160.01 9.33 162.48 10.58Q164.94 11.84 166.25 14.01Q167.55 16.19 167.55 18.63Q167.55 20.95 166.31 22.85Q165.06 24.76 162.62 25.88Q165.80 26.61 167.55 28.92Q169.31 31.23 169.31 34.69Q169.31 39.38 165.89 42.64Q162.48 45.90 157.25 45.90Q152.54 45.90 149.43 43.09Q146.31 40.28 145.87 35.82ZM174.07 47.41L178.34 48.05Q178.61 50.02 179.83 50.93Q181.47 52.15 184.30 52.15Q187.35 52.15 189.01 50.93Q190.67 49.71 191.26 47.51Q191.60 46.17 191.58 41.87Q188.70 45.26 184.40 45.26Q179.05 45.26 176.12 41.41Q173.19 37.55 173.19 32.15Q173.19 28.44 174.54 25.31Q175.88 22.17 178.43 20.46Q180.98 18.75 184.42 18.75Q189.01 18.75 191.99 22.46L191.99 19.34L196.04 19.34L196.04 41.75Q196.04 47.80 194.81 50.33Q193.58 52.86 190.91 54.32Q188.23 55.79 184.33 55.79Q179.69 55.79 176.83 53.70Q173.97 51.61 174.07 47.41M177.71 31.84Q177.71 36.94 179.74 39.28Q181.76 41.63 184.81 41.63Q187.84 41.63 189.89 39.29Q191.94 36.96 191.94 31.98Q191.94 27.22 189.83 24.80Q187.72 22.39 184.74 22.39Q181.81 22.39 179.76 24.77Q177.71 27.15 177.71 31.84ZM219.60 42.07Q217.16 44.14 214.90 45.00Q212.65 45.85 210.06 45.85Q205.79 45.85 203.49 43.76Q201.20 41.67 201.20 38.43Q201.20 36.52 202.06 34.95Q202.93 33.37 204.33 32.42Q205.74 31.47 207.50 30.98Q208.79 30.64 211.40 30.32Q216.72 29.69 219.24 28.81Q219.26 27.91 219.26 27.66Q219.26 24.98 218.02 23.88Q216.33 22.39 213.01 22.39Q209.91 22.39 208.44 23.47Q206.96 24.56 206.25 27.32L201.95 26.73Q202.54 23.97 203.88 22.28Q205.22 20.58 207.76 19.67Q210.30 18.75 213.65 18.75Q216.97 18.75 219.04 19.53Q221.12 20.31 222.09 21.50Q223.07 22.68 223.46 24.49Q223.68 25.61 223.68 28.54L223.68 34.40Q223.68 40.53 223.96 42.15Q224.24 43.77 225.07 45.26L220.48 45.26Q219.80 43.90 219.60 42.07M219.24 32.25Q216.85 33.23 212.06 33.91Q209.35 34.30 208.23 34.79Q207.10 35.28 206.49 36.22Q205.88 37.16 205.88 38.31Q205.88 40.06 207.21 41.24Q208.54 42.41 211.11 42.41Q213.65 42.41 215.63 41.30Q217.60 40.19 218.53 38.26Q219.24 36.77 219.24 33.86L219.24 32.25ZM252.08 18.24L247.71 18.58Q247.12 15.99 246.04 14.82Q244.26 12.94 241.65 12.94Q239.55 12.94 237.96 14.11Q235.89 15.63 234.69 18.53Q233.50 21.44 233.45 26.81Q235.03 24.39 237.33 23.22Q239.62 22.05 242.14 22.05Q246.53 22.05 249.62 25.28Q252.71 28.52 252.71 33.64Q252.71 37.01 251.26 39.90Q249.80 42.80 247.27 44.34Q244.73 45.87 241.50 45.87Q236.01 45.87 232.54 41.83Q229.08 37.79 229.08 28.52Q229.08 18.14 232.91 13.43Q236.25 9.33 241.92 9.33Q246.14 9.33 248.84 11.69Q251.54 14.06 252.08 18.24M234.13 33.67Q234.13 35.94 235.10 38.01Q236.06 40.09 237.79 41.17Q239.53 42.26 241.43 42.26Q244.21 42.26 246.22 40.01Q248.22 37.77 248.22 33.91Q248.22 30.20 246.24 28.06Q244.26 25.93 241.26 25.93Q238.28 25.93 236.21 28.06Q234.13 30.20 234.13 33.67ZM271.17 45.26L271.17 36.69L255.64 36.69L255.64 32.67L271.97 9.47L275.56 9.47L275.56 32.67L280.40 32.67L280.40 36.69L275.56 36.69L275.56 45.26L271.17 45.26M271.17 32.67L271.17 16.53L259.96 32.67L271.17 32.67ZM284.89 27.61Q284.89 21.26 286.19 17.40Q287.50 13.53 290.08 11.43Q292.65 9.33 296.56 9.33Q299.44 9.33 301.61 10.49Q303.78 11.65 305.20 13.83Q306.62 16.02 307.42 19.15Q308.23 22.29 308.23 27.61Q308.23 33.91 306.93 37.78Q305.64 41.65 303.06 43.76Q300.49 45.87 296.56 45.87Q291.38 45.87 288.43 42.16Q284.89 37.70 284.89 27.61M289.40 27.61Q289.40 36.43 291.47 39.34Q293.53 42.26 296.56 42.26Q299.58 42.26 301.65 39.33Q303.71 36.40 303.71 27.61Q303.71 18.77 301.65 15.87Q299.58 12.96 296.51 12.96Q293.48 12.96 291.67 15.53Q289.40 18.80 289.40 27.61ZM312.70 27.61Q312.70 21.26 314.00 17.40Q315.31 13.53 317.88 11.43Q320.46 9.33 324.37 9.33Q327.25 9.33 329.42 10.49Q331.59 11.65 333.01 13.83Q334.42 16.02 335.23 19.15Q336.04 22.29 336.04 27.61Q336.04 33.91 334.74 37.78Q333.45 41.65 330.87 43.76Q328.30 45.87 324.37 45.87Q319.19 45.87 316.24 42.16Q312.70 37.70 312.70 27.61M317.21 27.61Q317.21 36.43 319.27 39.34Q321.34 42.26 324.37 42.26Q327.39 42.26 329.46 39.33Q331.52 36.40 331.52 27.61Q331.52 18.77 329.46 15.87Q327.39 12.96 324.32 12.96Q321.29 12.96 319.48 15.53Q317.21 18.80 317.21 27.61Z"/></g></g></svg>