<svg xmlns="http://www.w3.org/2000/svg" width="271" height="262" x="465" y="169" fill="none" transform-origin="center" viewBox="0 0 271 262"><animateTransform fill="freeze" attributeName="transform" begin="0s" calcMode="spline" dur="2.5s" from="0 0" keySplines="0.16, 1, 0.3, 1" keyTimes="0;1" to="1 1" type="scale"/><path fill="#fff" d="M135.5 0a135.502 135.502 0 0 1 119.501 199.374 135.5 135.5 0 0 1-41.445 46.883H271v15h-86.5v-15.672a120.5 120.5 0 0 0 57.272-53.281A120.497 120.497 0 0 0 135.5 15 120.5 120.5 0 0 0 29.229 192.304 120.5 120.5 0 0 0 86.5 245.585v15.672H0v-15h57.446A135.5 135.5 0 0 1 2.604 109.065 135.5 135.5 0 0 1 135.5 0"/></svg>