<svg x="444" y="222" width="312" height="186" viewBox="0 0 82.4 70.6" xmlns="http://www.w3.org/2000/svg">
  <path fill="#fff" style="transform-origin:41.2px 35.3px" d="M30.8 70.6H0v-6.5h19.4Q12.1 59 8.3 51.4T4.5 35a37.5 37.5 0 0 1 1.074-9.117A32.6 32.6 0 0 1 7.25 20.9Q10 14.5 15 9.8t11.7-7.25A39.5 39.5 0 0 1 38.67.069 46 46 0 0 1 41.2 0a43 43 0 0 1 9.387.997A37 37 0 0 1 55.75 2.55Q62.4 5.1 67.4 9.8t7.75 11.1T77.9 35q0 8.8-3.8 16.4T63 64.1h19.4v6.5H51.6v-6a39.5 39.5 0 0 0 8.065-5.439A31.8 31.8 0 0 0 65.7 52.05q4.8-7.75 4.8-16.75a32 32 0 0 0-.84-7.464 28 28 0 0 0-1.31-4.086q-2.15-5.25-6.1-9.1t-9.3-5.95a30.6 30.6 0 0 0-8.616-1.968A37 37 0 0 0 41.2 6.6a33.3 33.3 0 0 0-8.414 1.039A30 30 0 0 0 29.5 8.7a27.2 27.2 0 0 0-8.429 5.129 26 26 0 0 0-.871.821q-3.9 3.85-6.1 9.1T11.9 35.3q0 9 4.8 16.8a32.3 32.3 0 0 0 9.604 9.871A41 41 0 0 0 30.8 64.6z">
    <animateTransform attributeName="transform" type="scale" from="0" to="1" begin="0s" dur="2.5s" fill="freeze" calcMode="spline" keySplines="0.16, 1, 0.3, 1" keyTimes="0;1"/>
  </path>
</svg>