<!--https://danmarshall.github.io/google-font-to-svg-path/-->
<svg width="312" height="186" x="444" y="222" viewBox="0 0 82.4 70.6" xmlns="http://www.w3.org/2000/svg">
  <path style="transform-origin:center" fill="#ffffff" d="M 30.8 70.6 L 0 70.6 L 0 64.1 L 19.4 64.1 Q 12.1 59 8.3 51.4 Q 4.5 43.8 4.5 35 A 37.54 37.54 0 0 1 5.574 25.883 A 32.58 32.58 0 0 1 7.25 20.9 Q 10 14.5 15 9.8 Q 20 5.1 26.7 2.55 A 39.537 39.537 0 0 1 38.67 0.069 A 46.139 46.139 0 0 1 41.2 0 A 42.866 42.866 0 0 1 50.587 0.997 A 36.94 36.94 0 0 1 55.75 2.55 Q 62.4 5.1 67.4 9.8 Q 72.4 14.5 75.15 20.9 Q 77.9 27.3 77.9 35 Q 77.9 43.8 74.1 51.4 Q 70.3 59 63 64.1 L 82.4 64.1 L 82.4 70.6 L 51.6 70.6 L 51.6 64.6 A 39.485 39.485 0 0 0 59.665 59.161 A 31.754 31.754 0 0 0 65.7 52.05 Q 70.5 44.3 70.5 35.3 A 32.142 32.142 0 0 0 69.66 27.836 A 27.677 27.677 0 0 0 68.35 23.75 Q 66.2 18.5 62.25 14.65 Q 58.3 10.8 52.95 8.7 A 30.586 30.586 0 0 0 44.334 6.732 A 36.768 36.768 0 0 0 41.2 6.6 A 33.253 33.253 0 0 0 32.786 7.639 A 29.755 29.755 0 0 0 29.5 8.7 A 27.197 27.197 0 0 0 21.071 13.829 A 26.022 26.022 0 0 0 20.2 14.65 Q 16.3 18.5 14.1 23.75 Q 11.9 29 11.9 35.3 Q 11.9 44.3 16.7 52.1 A 32.317 32.317 0 0 0 26.304 61.971 A 41.281 41.281 0 0 0 30.8 64.6 L 30.8 70.6 Z" vector-effect="non-scaling-stroke">
    <animateTransform attributeName="transform" type="scale" from="0" to="1" begin="0s" dur="2.5s" fill="freeze" calcMode="spline" keySplines="0.16, 1, 0.3, 1" keyTimes="0;1"/>
  </path>
</svg>
